<svg width="806" height="876" viewBox="0 0 806 876" fill="none" xmlns="http://www.w3.org/2000/svg">
<rect width="806" height="876" fill="#F5F5F5"/>
<path d="M165.75 185.25V151.75H186.171H284.25V185.25H165.75Z" fill="#EDCB17" stroke="#1F741E" stroke-width="7.5"/>
<path d="M165.75 263.25V229.75H181.95H262.25V263.25H165.75Z" fill="#EDCB17" stroke="#1F741E" stroke-width="7.5"/>
<path d="M166 121H209V189.854L209 496H166L166 121Z" fill="#EDCB17" stroke="#1F741E" stroke-width="10"/>
<circle cx="191" cy="644" r="183.5" fill="#EDCB17" stroke="#1F741E" stroke-width="15"/>
<circle cx="191" cy="644" r="135.5" fill="#F5F5F5" stroke="#1F741E" stroke-width="15"/>
<rect x="272.5" y="491.5" width="526" height="377" fill="#EDCB17" stroke="#1F741E" stroke-width="15"/>
<path d="M479.4 815L535.5 624.684L591.6 815H479.4Z" fill="#AEAEAE" stroke="#1F741E" stroke-width="10"/>
<rect x="328.5" y="224.5" width="46" height="267" fill="#EDCB17" stroke="#1F741E" stroke-width="15"/>
<rect x="703.5" y="227.5" width="41" height="264" fill="#EDCB17" stroke="#1F741E" stroke-width="15"/>
<path d="M540.961 51.6196L540.565 51.5947L540.168 51.6118C460.484 55.0441 417.696 73.5584 395.859 106.75C385.09 123.119 379.925 142.352 377.382 163.438C375.102 182.349 374.881 203.267 374.86 225.5H328.5V180.245C328.5 103.25 356.438 60.8734 395.709 37.1856C435.743 13.0379 488.822 7.50004 540.491 7.5C587.657 7.49996 638.797 14.4344 677.955 39.2934C716.503 63.7646 744.5 106.283 744.5 180.245V180.426V180.606V180.785V180.965V181.144V181.324V181.503V181.681V181.86V182.038V182.216V182.394V182.572V182.75V182.927V183.104V183.281V183.458V183.634V183.811V183.987V184.162V184.338V184.514V184.689V184.864V185.039V185.213V185.387V185.562V185.735V185.909V186.083V186.256V186.429V186.602V186.774V186.947V187.119V187.291V187.462V187.634V187.805V187.976V188.147V188.317V188.488V188.658V188.828V188.997V189.167V189.336V189.505V189.673V189.842V190.01V190.178V190.346V190.513V190.681V190.848V191.015V191.181V191.348V191.514V191.679V191.845V192.011V192.176V192.341V192.505V192.67V192.834V192.998V193.161V193.325V193.488V193.651V193.814V193.976V194.138V194.3V194.462V194.623V194.785V194.946V195.106V195.267V195.427V195.587V195.747V195.906V196.065V196.224V196.383V196.541V196.699V196.857V197.015V197.172V197.329V197.486V197.643V197.799V197.955V198.111V198.267V198.422V198.577V198.732V198.886V199.04V199.194V199.348V199.501V199.654V199.807V199.96V200.112V200.264V200.416V200.568V200.719V200.87V201.02V201.171V201.321V201.471V201.62V201.77V201.919V202.068V202.216V202.364V202.512V202.66V202.807V202.954V203.101V203.247V203.394V203.54V203.685V203.831V203.976V204.12V204.265V204.409V204.553V204.697V204.84V204.983V205.126V205.268V205.411V205.553V205.694V205.835V205.976V206.117V206.258V206.398V206.538V206.677V206.816V206.955V207.094V207.232V207.37V207.508V207.645V207.783V207.919V208.056V208.192V208.328V208.464V208.599V208.734V208.869V209.003V209.137V209.271V209.404V209.537V209.67V209.803V209.935V210.067V210.199V210.33V210.461V210.591V210.722V210.852V210.981V211.111V211.24V211.369V211.497V211.625V211.753V211.881V212.008V212.135V212.261V212.387V212.513V212.639V212.764V212.889V213.013V213.138V213.261V213.385V213.508V213.631V213.754V213.876V213.998V214.12V214.241V214.362V214.482V214.603V214.723V214.842V214.962V215.08V215.199V215.317V215.435V215.553V215.67V215.787V215.904V216.02V216.136V216.251V216.366V216.481V216.596V216.71V216.824V216.937V217.05V217.163V217.276V217.388V217.5V217.611V217.722V217.833V217.943V218.053V218.163V218.272V218.381V218.49V218.598V218.706V218.813V218.92V219.027V219.134V219.24V219.346V219.451V219.556V219.661V219.765V219.869V219.972V220.076V220.179V220.281V220.383V220.485V220.586V220.687V220.788V220.888V220.988V221.088V221.187V221.286V221.384V221.482V221.58V221.678V221.775V221.871V221.967V222.063V222.159V222.254V222.349V222.443V222.537V222.63V222.724V222.816V222.909V223.001V223.093V223.184V223.275V223.366V223.456V223.546V223.635V223.724V223.813V223.901V223.989V224.076V224.163V224.25V224.336V224.422V224.508V224.593V224.678V224.762V224.846V224.93V225.013V225.096V225.178V225.26V225.342V225.423V225.5H703.127C703.058 191.163 701.897 151.429 682.712 118.626C661.624 82.569 620.019 56.5842 540.961 51.6196Z" fill="#EDCB17" stroke="#1F741E" stroke-width="15"/>
<rect x="336" y="217" width="31" height="27" fill="#EDCB17"/>
<rect x="711" y="217" width="26" height="26" fill="#EDCB17"/>
<circle cx="535" cy="637" r="59" fill="#B6B6B6" stroke="#1F741E" stroke-width="10"/>
<rect x="488.5" y="618.5" width="39" height="31" fill="#ABBEC0" stroke="black" stroke-width="5"/>
<rect x="541.5" y="618.5" width="39" height="31" fill="#ABBEC0" stroke="black" stroke-width="5"/>
<circle cx="511" cy="632" r="8" fill="black"/>
<circle cx="559" cy="632" r="8" fill="black"/>
<circle cx="535" cy="667" r="7.5" fill="#D9D9D9" stroke="black" stroke-width="5"/>
</svg>
